# xmcd
#
# Track frame offsets:
# 150
# 10024
# 24709
# 31179
# 41299
# 50097
# 61777
# 72434
# 91201
# 99656
# 115307
# 125552
# 131081
# 141257
#
# Disc length: 2045 seconds
#
#
# Revision: 0
# Processed by: cddbd v1.5.2PL0 Copyright (c) Steve Scherf et al.
# Submitted via: FreeRIP 2.945 
#
DISCID=c007fb0e
DTITLE=Cavalinho Branco - Natal na Alemanha
DYEAR=1900
DGENRE=Folk
TTITLE0=Kling Glöckchen
TTITLE1=Lasst Uns Froh Und Munder Sein
TTITLE2=Alle Jahre Wieder
TTITLE3=Ihr Kinderlein Kommet
TTITLE4=Leise Riesei Der Schnee
TTITLE5=Suesser Die Glocken Nie Klingen
TTITLE6=Kommet Ihr Hirten
TTITLE7=Es Ist Ein Ros Entsprungen
TTITLE8=O Tannenbaum
TTITLE9=White Christmas
TTITLE10=Jingle Bells
TTITLE11=Schneeflockchen
TTITLE12=O Du Fröluche
TTITLE13=Stille Nacht - Noite Feliz
EXTD=
EXTT0=
EXTT1=
EXTT2=
EXTT3=
EXTT4=
EXTT5=
EXTT6=
EXTT7=
EXTT8=
EXTT9=
EXTT10=
EXTT11=
EXTT12=
EXTT13=
PLAYORDER=
